<svg xmlns="http://www.w3.org/2000/svg" width="512" height="512" viewBox="0 0 512 512">
<g stroke="#e4e7ec" stroke-width="1">
<line x1="0" y1="0" x2="0" y2="512"/><line x1="64" y1="0" x2="64" y2="512"/><line x1="128" y1="0" x2="128" y2="512"/><line x1="192" y1="0" x2="192" y2="512"/><line x1="256" y1="0" x2="256" y2="512"/><line x1="320" y1="0" x2="320" y2="512"/><line x1="384" y1="0" x2="384" y2="512"/><line x1="448" y1="0" x2="448" y2="512"/><line x1="512" y1="0" x2="512" y2="512"/>
<line x1="0" y1="0" x2="512" y2="0"/><line x1="0" y1="64" x2="512" y2="64"/><line x1="0" y1="128" x2="512" y2="128"/><line x1="0" y1="192" x2="512" y2="192"/><line x1="0" y1="256" x2="512" y2="256"/><line x1="0" y1="320" x2="512" y2="320"/><line x1="0" y1="384" x2="512" y2="384"/><line x1="0" y1="448" x2="512" y2="448"/><line x1="0" y1="512" x2="512" y2="512"/>
</g>
</svg>